<svg xmlns="http://www.w3.org/2000/svg" version="1.1" xmlns:xlink="http://www.w3.org/1999/xlink" width="98.75" height="81.69"><svg xmlns="http://www.w3.org/2000/svg" version="1.1" xmlns:xlink="http://www.w3.org/1999/xlink" width="98.75" height="81.69"><svg id="Layer_2" data-name="Layer 2" xmlns="http://www.w3.org/2000/svg" viewBox="0 0 98.75 81.69">
  <defs>
    <style>
      .cls-1 {
        fill: none;
      }

      .cls-2 {
        fill: #aeec7a;
      }
    </style>
  </defs>
  <g id="Layer_1-2" data-name="Layer 1">
    <g>
      <path class="cls-2" d="M98.75,33.62c.03,5.01-2.88,9.1-6.2,9.1h-11.43c-7.93,0-15.62-2.76-22.71-8.01-.74.55-1.49,1.07-2.25,1.57,3.69-2.75,7.11-5.82,10.28-9.19,2.38-2.53,4.6-5.23,6.65-8.07-.85,1.25-1.73,2.46-2.63,3.62,3.46,1.38,7.03,2.09,10.66,2.09h11.64c1.66,0,3.15,1.01,4.23,2.63,1.07,1.61,1.74,3.82,1.76,6.26Z"></path>
      <path class="cls-2" d="M67.49,51.47v21.48c0,4.83-4.05,8.74-9.05,8.74h0c-5,0-9.05-3.91-9.05-8.74v-21.48c0-4.83,4.05-8.74,9.05-8.74h0c5,0,9.05,3.91,9.05,8.74Z"></path>
      <path class="cls-2" d="M83.25,0c-2.88,7-6.28,13.37-10.08,18.93-.03.03-.05.06-.07.09l-.18.24c-2,2.75-4.16,5.37-6.47,7.83-.79.84-1.6,1.67-2.42,2.47-.42.41-.84.81-1.26,1.19-.84.8-1.69,1.56-2.56,2.3-.88.75-1.77,1.48-2.68,2.18-.42.34-.85.67-1.28.99-.03.02-.05.04-.08.06-6.26,4.13-13.01,6.4-20.02,6.4H5.98c-1.65,0-3.14-1.01-4.22-2.64-.97-1.45-1.61-3.4-1.74-5.58-.01-.24-.02-.48-.02-.72-.01-2.71.84-5.15,2.16-6.81,1.1-1.39,2.53-2.24,4.04-2.24h29.95c2.19,0,4.38-.28,6.55-.85,1.23-.32,2.46-.72,3.67-1.22-.22-.28-.43-.57-.65-.86-1.85-2.49-3.63-5.19-5.32-8.1-1.66-2.86-3.21-5.85-4.64-8.98h-2.16c-1.29,0-2.34-1.06-2.34-2.34,0-.64.26-1.23.69-1.65.42-.43,1-.69,1.65-.69h16.11c-.44.94-.72,1.98-.84,3.08-.04.37-.06.74-.06,1.11v.02c0,.34.02.67.05,1,0,.03,0,.06.01.09.02.18.04.36.08.54.1.68.27,1.33.51,1.94.07.22.16.43.26.64.1.21.2.42.31.62.08.16.17.32.28.47.08.16.18.31.3.45.11.15.22.29.33.43.11.13.22.26.34.39.85.94,1.91,1.69,3.12,2.2,1.19.5,2.52.78,3.96.78,1.53,0,2.94-.31,4.19-.89.21-.09.41-.19.6-.3.27-.14.52-.3.77-.47.15-.1.3-.21.44-.32.27-.21.53-.44.78-.69.31-.31.6-.63.86-.98.2-.26.39-.53.55-.82s.32-.58.46-.89c.2-.4.35-.83.47-1.27.07-.22.13-.44.17-.67.01-.03.01-.05.02-.07.02-.07.03-.15.05-.23.02-.1.04-.2.06-.3.03-.18.05-.36.07-.54.02-.2.04-.4.05-.6.01-.09.01-.17.01-.26.01-.09.01-.18.01-.26,0-.19-.01-.38-.02-.56-.02-.37-.06-.74-.12-1.1-.15-.91-.41-1.76-.77-2.54h16.24Z"></path>
      <path class="cls-1" d="M67.91,4.21v.25c0,.09,0,.17-.01.26-.01.2-.03.4-.05.6-.02.18-.04.36-.07.54-.02.1-.04.2-.06.3-.02.08-.03.16-.05.23-.01.02-.01.04-.02.07-.05.23-.11.45-.17.67-.13.44-.29.87-.47,1.27-.14.31-.3.6-.46.89-.17.28-.36.56-.55.82-.26.35-.55.67-.86.98-.24.24-.51.47-.78.69-.14.11-.29.22-.44.32-.25.17-.5.33-.77.47-.19.11-.39.21-.6.3-1.25.58-2.66.89-4.19.89-1.44,0-2.77-.28-3.96-.78-1.21-.51-2.27-1.26-3.12-2.2-.12-.13-.23-.26-.34-.39-.11-.14-.22-.28-.33-.43-.1-.15-.2-.3-.3-.45-.1-.16-.19-.31-.28-.47-.11-.2-.21-.41-.31-.62-.09-.21-.18-.42-.26-.64-.16-.44-.29-.9-.39-1.37-.04-.19-.09-.38-.12-.57-.04-.18-.06-.36-.08-.54-.01-.03-.01-.06-.01-.09-.03-.33-.05-.66-.05-1v-.02c0-.37.02-.74.06-1.11.12-1.1.4-2.14.84-3.08h17.3c.36.78.62,1.63.77,2.54.06.36.1.73.12,1.1.01.19.01.38.01.57Z"></path>
    </g>
    <path class="cls-2" d="M91.3,58.09c0,3.6-2.91,6.51-6.51,6.51h-47.31s-.03.07-.04.1c-.9,2.34-1.75,4.23-2.34,5.16-.8,1.23-2.13,2.98-4.5,3.93-1.17.47-2.3.62-3.29.62-1.34,0-2.41-.27-2.96-.41-6.32-1.59-10.69-4.62-13.01-8.99-3.13-5.93-1.44-12.24-.2-16.85l.07-.27c.46-1.72.88-3.46,1.25-5.21h13.26c-.54,2.88-1.19,5.74-1.95,8.57l-.08.27c-.71,2.67-1.6,6-.86,7.41.33.61,1.2,1.22,2.45,1.74.09.1.63-.56,1.32-2.05.21-.44.43-.95.65-1.54.37-1.08.4-1.55.78-2.23,1.02-1.77,2.85-3.01,4.97-3.23h52.46c1.53.16,2.91.85,3.93,1.87.94.94,1.6,2.18,1.82,3.55t0,.01c.06.34.09.69.09,1.04Z"></path>
    <path class="cls-2" d="M85.46,51.62h-51.39c.22-.02.44-.03.67-.03h50.05c.22,0,.45.01.67.03Z"></path>
    <path class="cls-2" d="M84.4,51.62h-51.4c.22-.02.45-.03.67-.03h50.06c.22,0,.45.01.67.03Z"></path>
    <circle class="cls-2" cx="20.34" cy="12.04" r="7.37"></circle>
  </g>
</svg></svg><style>@media (prefers-color-scheme: light) { :root { filter: none; } }
@media (prefers-color-scheme: dark) { :root { filter: none; } }
</style></svg>